<?xml version="1.0" standalone="no"?>
<!DOCTYPE svg PUBLIC "-//W3C//DTD SVG 20010904//EN"
 "http://www.w3.org/TR/2001/REC-SVG-20010904/DTD/svg10.dtd">
<svg version="1.0" xmlns="http://www.w3.org/2000/svg"
 width="980.000000pt" height="980.000000pt" viewBox="0 0 980.000000 980.000000"
 preserveAspectRatio="xMidYMid meet">
<metadata>
Created by potrace 1.14, written by Peter Selinger 2001-2017
</metadata>
<g transform="translate(0.000000,980.000000) scale(0.100000,-0.100000)"
fill="#000000" stroke="none">
<path d="M4705 8403 c-376 -29 -588 -69 -885 -165 -1145 -369 -2028 -1313
-2324 -2483 -36 -142 -72 -349 -88 -495 -19 -181 -16 -581 5 -760 68 -563 255
-1074 563 -1536 138 -207 268 -367 442 -542 567 -569 1324 -931 2122 -1014
160 -16 572 -16 715 0 824 95 1536 431 2110 997 280 277 523 615 690 960 173
357 283 736 332 1135 24 200 24 600 0 800 -49 403 -160 782 -332 1135 -496
1015 -1461 1738 -2567 1924 -235 40 -589 60 -783 44z"/>
</g>
</svg>
